name C:/MyDriveSym/Projects/mobilecap/Data\Session20210820_0002\mocap\ForceDataProcessed\walkingTS2_forces.mot
datacolumns 19
datarows 27
range 0.00000000 0.01300000
endheader 
time	R_ground_force_vx	R_ground_force_vy	R_ground_force_vz	R_ground_force_px	R_ground_force_py	R_ground_force_pz	R_ground_torque_x	R_ground_torque_y	R_ground_torque_z	L_ground_force_vx	L_ground_force_vy	L_ground_force_vz	L_ground_force_px	L_ground_force_py	L_ground_force_pz	L_ground_torque_x	L_ground_torque_y	L_ground_torque_z	
          0.00000000	          7.16086600	        308.46815200	         -5.79348900	          0.09845200	          0.00600000	         -0.09630500	          0.00000000	          0.63124600	          0.00000000	          0.00000000	          0.00000000	          0.00000000	          0.76733300	          0.00000000	         -0.21053800	          0.00000000	          0.00000000	          0.00000000	
          0.00050000	          6.47557800	        310.24516400	         -5.78290100	          0.09845200	          0.00600000	         -0.09630500	          0.00000000	          0.63627700	          0.00000000	          0.00000000	          0.00000000	          0.00000000	          0.76733300	          0.00000000	         -0.21053800	          0.00000000	          0.00000000	          0.00000000	
          0.00100000	          5.78776200	        312.03296100	         -5.77317000	          0.09845200	          0.00600000	         -0.09630500	          0.00000000	          0.64134200	          0.00000000	          0.00000000	          0.00000000	          0.00000000	          0.76733300	          0.00000000	         -0.21053800	          0.00000000	          0.00000000	          0.00000000	
          0.00150000	          5.09748200	        313.83145500	         -5.76431400	          0.09845200	          0.00600000	         -0.09630500	          0.00000000	          0.64644000	          0.00000000	          0.00000000	          0.00000000	          0.00000000	          0.76733300	          0.00000000	         -0.21053800	          0.00000000	          0.00000000	          0.00000000	
          0.00200000	          4.40480100	        315.64055500	         -5.75635000	          0.09862900	          0.00600000	         -0.09630500	          0.00000000	          0.65157100	          0.00000000	          0.00000000	          0.00000000	          0.00000000	          0.76733300	          0.00000000	         -0.21053800	          0.00000000	          0.00000000	          0.00000000	
          0.00250000	          3.70978700	        317.46017000	         -5.74929400	          0.09880500	          0.00600000	         -0.09630400	          0.00000000	          0.65673400	          0.00000000	          0.00000000	          0.00000000	          0.00000000	          0.76733300	          0.00000000	         -0.21053800	          0.00000000	          0.00000000	          0.00000000	
          0.00300000	          3.01250600	        319.29020200	         -5.74316400	          0.09898100	          0.00600000	         -0.09630200	          0.00000000	          0.66192900	          0.00000000	          0.00000000	          0.00000000	          0.00000000	          0.76733300	          0.00000000	         -0.21053800	          0.00000000	          0.00000000	          0.00000000	
          0.00350000	          2.31302600	        321.13055500	         -5.73797800	          0.09915600	          0.00600000	         -0.09630000	          0.00000000	          0.66715500	          0.00000000	          0.00000000	          0.00000000	          0.00000000	          0.76733300	          0.00000000	         -0.21053800	          0.00000000	          0.00000000	          0.00000000	
          0.00400000	          1.61141600	        322.98112900	         -5.73375200	          0.09933100	          0.00600000	         -0.09629800	          0.00000000	          0.67241200	          0.00000000	          0.00000000	          0.00000000	          0.00000000	          0.76733300	          0.00000000	         -0.21053800	          0.00000000	          0.00000000	          0.00000000	
          0.00450000	          0.90774900	        324.84182300	         -5.73050500	          0.09950500	          0.00600000	         -0.09629600	          0.00000000	          0.67770000	          0.00000000	          0.00000000	          0.00000000	          0.00000000	          0.76733300	          0.00000000	         -0.21053800	          0.00000000	          0.00000000	          0.00000000	
          0.00500000	          0.20209400	        326.71253300	         -5.72825400	          0.09968000	          0.00600000	         -0.09629300	          0.00000000	          0.68301700	          0.00000000	          0.00000000	          0.00000000	          0.00000000	          0.76733300	          0.00000000	         -0.21053800	          0.00000000	          0.00000000	          0.00000000	
          0.00550000	         -0.50547400	        328.59315200	         -5.72701700	          0.09985300	          0.00600000	         -0.09628900	          0.00000000	          0.68836400	          0.00000000	          0.00000000	          0.00000000	          0.00000000	          0.76733300	          0.00000000	         -0.21053800	          0.00000000	          0.00000000	          0.00000000	
          0.00600000	         -1.21488300	        330.48357400	         -5.72681200	          0.10002600	          0.00600000	         -0.09628500	          0.00000000	          0.69374000	          0.00000000	          0.00000000	          0.00000000	          0.00000000	          0.76733300	          0.00000000	         -0.21053800	          0.00000000	          0.00000000	          0.00000000	
          0.00650000	         -1.92605600	        332.38368900	         -5.72765700	          0.10019900	          0.00600000	         -0.09628100	          0.00000000	          0.69914400	          0.00000000	          0.00000000	          0.00000000	          0.00000000	          0.76733300	          0.00000000	         -0.21053800	          0.00000000	          0.00000000	          0.00000000	
          0.00700000	         -2.63892000	        334.29338500	         -5.72957100	          0.10037200	          0.00600000	         -0.09627600	          0.00000000	          0.70457600	          0.00000000	          0.00000000	          0.00000000	          0.00000000	          0.76733300	          0.00000000	         -0.21053800	          0.00000000	          0.00000000	          0.00000000	
          0.00750000	         -3.35339600	        336.21255000	         -5.73257200	          0.10054400	          0.00600000	         -0.09627100	          0.00000000	          0.71003600	          0.00000000	          0.00000000	          0.00000000	          0.00000000	          0.76733300	          0.00000000	         -0.21053800	          0.00000000	          0.00000000	          0.00000000	
          0.00800000	         -4.06940800	        338.14106800	         -5.73667800	          0.10071500	          0.00600000	         -0.09626600	          0.00000000	          0.71552300	          0.00000000	          0.00000000	          0.00000000	          0.00000000	          0.76733300	          0.00000000	         -0.21053800	          0.00000000	          0.00000000	          0.00000000	
          0.00850000	         -4.78687700	        340.07882200	         -5.74190700	          0.10088600	          0.00600000	         -0.09626000	          0.00000000	          0.72103600	          0.00000000	          0.00000000	          0.00000000	          0.00000000	          0.76733300	          0.00000000	         -0.21053800	          0.00000000	          0.00000000	          0.00000000	
          0.00900000	         -5.50572600	        342.02569300	         -5.74827900	          0.10105700	          0.00600000	         -0.09625300	          0.00000000	          0.72657500	          0.00000000	          0.00000000	          0.00000000	          0.00000000	          0.76733300	          0.00000000	         -0.21053800	          0.00000000	          0.00000000	          0.00000000	
          0.00950000	         -6.22587400	        343.98156300	         -5.75581200	          0.10122700	          0.00600000	         -0.09624700	          0.00000000	          0.73214000	          0.00000000	          0.00000000	          0.00000000	          0.00000000	          0.76733300	          0.00000000	         -0.21053800	          0.00000000	          0.00000000	          0.00000000	
          0.01000000	         -6.94724200	        345.94630700	         -5.76452400	          0.10139600	          0.00600000	         -0.09623900	          0.00000000	          0.73772900	          0.00000000	          0.00000000	          0.00000000	          0.00000000	          0.76733300	          0.00000000	         -0.21053800	          0.00000000	          0.00000000	          0.00000000	
          0.01050000	         -7.66974900	        347.91980300	         -5.77443400	          0.10156500	          0.00600000	         -0.09623200	          0.00000000	          0.74334300	          0.00000000	          0.00000000	          0.00000000	          0.00000000	          0.76733300	          0.00000000	         -0.21053800	          0.00000000	          0.00000000	          0.00000000	
          0.01100000	         -8.39331500	        349.90192400	         -5.78556100	          0.10173400	          0.00600000	         -0.09622400	          0.00000000	          0.74898000	          0.00000000	          0.00000000	          0.00000000	          0.00000000	          0.76733300	          0.00000000	         -0.21053800	          0.00000000	          0.00000000	          0.00000000	
          0.01150000	         -9.11785900	        351.89254400	         -5.79792400	          0.10190200	          0.00600000	         -0.09621500	          0.00000000	          0.75464100	          0.00000000	          0.00000000	          0.00000000	          0.00000000	          0.76733300	          0.00000000	         -0.21053800	          0.00000000	          0.00000000	          0.00000000	
          0.01200000	         -9.84329900	        353.89153400	         -5.81154100	          0.10207000	          0.00600000	         -0.09620700	          0.00000000	          0.76032500	          0.00000000	          0.00000000	          0.00000000	          0.00000000	          0.76733300	          0.00000000	         -0.21053800	          0.00000000	          0.00000000	          0.00000000	
          0.01250000	        -10.56955300	        355.89876200	         -5.82643000	          0.10223700	          0.00600000	         -0.09619700	          0.00000000	          0.76603000	          0.00000000	          0.00000000	          0.00000000	          0.00000000	          0.76733300	          0.00000000	         -0.21053800	          0.00000000	          0.00000000	          0.00000000	
          0.01300000	        -11.29654100	        357.91409600	         -5.84261200	          0.10240300	          0.00600000	         -0.09618800	          0.00000000	          0.77175700	          0.00000000	          0.00000000	          0.00000000	          0.00000000	          0.76733300	          0.00000000	         -0.21053800	          0.00000000	          0.00000000	          0.00000000	
